<?xml version="1.0" encoding="UTF-8" standalone="no"?>
<!DOCTYPE svg PUBLIC "-//W3C//DTD SVG 20010904//EN"
              "http://www.w3.org/TR/2001/REC-SVG-20010904/DTD/svg10.dtd">

<svg xmlns="http://www.w3.org/2000/svg"
     width="150px" height="200px"
     viewBox="0 0 150 200">
  <path id="Selección"
        fill="red" stroke="black" stroke-width="1"
        d="M 28.00,9.00
           C 28.00,9.00 29.91,26.00 29.91,26.00
             30.12,29.66 29.57,31.53 29.15,35.00
             27.53,48.55 22.49,62.74 8.00,67.00
             8.00,67.00 8.00,200.00 8.00,200.00
             8.00,200.00 146.00,200.00 146.00,200.00
             146.00,200.00 146.00,74.00 146.00,74.00
             146.00,71.62 146.20,68.29 144.98,66.21
             142.71,62.37 138.33,62.96 134.10,56.96
             129.31,50.15 127.10,39.24 127.00,31.00
             127.00,31.00 127.00,17.00 127.00,17.00
             126.95,14.56 127.00,12.31 125.40,10.27
             122.98,7.17 107.14,0.46 103.00,0.11
             94.51,-0.61 92.07,4.69 80.00,4.99
             63.97,5.37 61.67,-0.37 52.00,0.05
             45.58,0.33 34.88,6.60 28.00,9.00 Z" />
</svg>
